<svg width="201" height="200" viewBox="0 0 201 200" fill="none" xmlns="http://www.w3.org/2000/svg">
<path d="M142.417 81.5C143.521 80.3152 144.122 78.7482 144.093 77.129C144.065 75.5098 143.409 73.965 142.264 72.8198C141.119 71.6747 139.574 71.0188 137.955 70.9902C136.336 70.9617 134.768 71.5627 133.584 72.6667L88.0003 118.25L67.417 97.6667C66.2322 96.5627 64.6652 95.9617 63.046 95.9902C61.4268 96.0188 59.8819 96.6747 58.7368 97.8198C57.5917 98.965 56.9358 100.51 56.9072 102.129C56.8787 103.748 57.4797 105.315 58.5837 106.5L83.5837 131.5C84.7556 132.67 86.3441 133.328 88.0003 133.328C89.6566 133.328 91.2451 132.67 92.417 131.5L142.417 81.5Z" fill="#424242"/>
<path fill-rule="evenodd" clip-rule="evenodd" d="M118.3 10.0001C113.138 6.21172 106.903 4.16895 100.5 4.16895C94.0974 4.16895 87.8617 6.21172 82.7001 10.0001L71.2418 18.4168C68.9567 20.0916 66.3008 21.1894 63.5001 21.6168L49.4501 23.7751C43.122 24.7454 37.2685 27.7091 32.7408 32.2353C28.2132 36.7615 25.2475 42.614 24.2751 48.9418L22.1168 63.0001C21.6894 65.8008 20.5916 68.4567 18.9168 70.7418L10.5001 82.2001C6.71172 87.3617 4.66895 93.5974 4.66895 100C4.66895 106.403 6.71172 112.638 10.5001 117.8L18.9168 129.258C20.5835 131.542 21.6918 134.2 22.1168 137L24.2751 151.05C25.2454 157.378 28.2091 163.232 32.7353 167.759C37.2615 172.287 43.114 175.253 49.4418 176.225L63.5001 178.383C66.3001 178.808 68.9585 179.908 71.2418 181.583L82.7001 190C87.8617 193.789 94.0974 195.831 100.5 195.831C106.903 195.831 113.138 193.789 118.3 190L129.758 181.583C132.044 179.909 134.699 178.811 137.5 178.383L151.55 176.225C157.878 175.255 163.732 172.291 168.259 167.765C172.787 163.239 175.753 157.386 176.725 151.058L178.883 137C179.311 134.199 180.409 131.544 182.083 129.258L190.5 117.8C194.289 112.638 196.331 106.403 196.331 100C196.331 93.5974 194.289 87.3617 190.5 82.2001L182.083 70.7418C180.409 68.4567 179.311 65.8008 178.883 63.0001L176.725 48.9501C175.755 42.622 172.791 36.7685 168.265 32.2408C163.739 27.7132 157.886 24.7475 151.558 23.7751L137.5 21.6168C134.699 21.1894 132.044 20.0916 129.758 18.4168L118.3 10.0001ZM90.1001 20.0751C93.1163 17.8626 96.7595 16.6697 100.5 16.6697C104.241 16.6697 107.884 17.8626 110.9 20.0751L122.367 28.4918C126.274 31.3596 130.817 33.2408 135.608 33.9751L149.658 36.1251C153.357 36.6938 156.778 38.4277 159.423 41.0744C162.068 43.7212 163.8 47.1429 164.367 50.8418L166.533 64.8918C167.264 69.6851 169.142 74.2309 172.008 78.1418L180.425 89.6001C182.638 92.6163 183.831 96.2595 183.831 100C183.831 103.741 182.638 107.384 180.425 110.4L172.008 121.867C169.141 125.774 167.259 130.317 166.525 135.108L164.375 149.158C163.806 152.857 162.073 156.278 159.426 158.923C156.779 161.568 153.357 163.3 149.658 163.867L135.608 166.033C130.815 166.764 126.269 168.642 122.358 171.508L110.9 179.925C107.884 182.138 104.241 183.331 100.5 183.331C96.7595 183.331 93.1163 182.138 90.1001 179.925L78.6335 171.508C74.7258 168.641 70.183 166.759 65.3918 166.025L51.3418 163.875C47.6417 163.308 44.2191 161.575 41.5722 158.928C38.9253 156.281 37.1922 152.859 36.6251 149.158L34.4751 135.108C33.7421 130.314 31.8609 125.769 28.9918 121.858L20.5751 110.4C18.3626 107.384 17.1697 103.741 17.1697 100C17.1697 96.2595 18.3626 92.6163 20.5751 89.6001L28.9918 78.1335C31.8596 74.2258 33.7408 69.683 34.4751 64.8918L36.6251 50.8418C37.1922 47.1417 38.9253 43.7191 41.5722 41.0722C44.2191 38.4253 47.6417 36.6922 51.3418 36.1251L65.3918 33.9751C70.1859 33.2421 74.7317 31.3609 78.6418 28.4918L90.1001 20.0751Z" fill="#424242"/>
</svg>
